<svg xmlns="http://www.w3.org/2000/svg" id="mainsvg" width="570.751953125" height="265.5" viewBox="-10 -10 570.751953125 265.5"><defs><marker id="arrow" viewBox="0 0 10 10" refX="10" refY="5" markerWidth="6" markerHeight="6" orient="auto-start-reverse"><path d="M 0 0 L 10 5 L 0 10 z"/></marker><filter id="shadowfilter" x="-20%" y="-20%" width="150%" height="150%" filterUnits="objectBoundingBox" primitiveUnits="userSpaceOnUse" color-interpolation-filters="linearRGB"><feDropShadow stdDeviation="4 4" in="SourceGraphic" dx="1" dy="1" flood-color="#BABABA" flood-opacity="0.9" x="0%" y="0%" width="100%" height="100%" result="dropShadow"/></filter><filter id="shadowfilter2" x="0" y="0" width="200%" height="200%" filterUnits="userSpaceOnUse" color-interpolation-filters="sRGB"><feFlood flood-opacity="0" result="BackgroundImageFix"/><feColorMatrix in="SourceAlpha" type="matrix" values="0 0 0 0 0 0 0 0 0 0 0 0 0 0 0 0 0 0 127 0"/><feOffset dy="4" dx="2"/><feGaussianBlur stdDeviation="2"/><feColorMatrix type="matrix" values="0 0 0 0 0 0 0 0 0 0 0 0 0 0 0 0 0 0 0.25 0"/><feBlend mode="normal" in2="BackgroundImageFix" result="effect1_dropShadow"/><feBlend mode="normal" in="SourceGraphic" in2="effect1_dropShadow" result="shape"/></filter></defs><g transform="translate(0, 0)"><rect width="59.109375" height="38.5" stroke="#555656" fill="white" stroke-width="1.3" transform="translate(0, 0)" rx="2" filter="url(#shadowfilter)"/><text fill="black" font-size="16" font-weight="normal" transform="translate(10, 10)" alignment-baseline="middle" font-family="Bookman"><tspan x="0" dy="16">Client</tspan></text></g><g transform="translate(225.2548828125, 0)"><rect width="85.765625" height="38.5" stroke="#555656" fill="white" stroke-width="1.3" transform="translate(0, 0)" rx="2" filter="url(#shadowfilter)"/><text fill="black" font-size="16" font-weight="normal" transform="translate(10, 10)" alignment-baseline="middle" font-family="Bookman"><tspan x="0" dy="16">Controller</tspan></text></g><g transform="translate(411.275390625, 0)"><rect width="61.7734375" height="38.5" stroke="#555656" fill="white" stroke-width="1.3" transform="translate(0, 0)" rx="2" filter="url(#shadowfilter)"/><text fill="black" font-size="16" font-weight="normal" transform="translate(10, 10)" alignment-baseline="middle" font-family="Bookman"><tspan x="0" dy="16">Model</tspan></text></g><g transform="translate(497.048828125, 0)"><rect width="53.703125" height="38.5" stroke="#555656" fill="white" stroke-width="1.3" transform="translate(0, 0)" rx="2" filter="url(#shadowfilter)"/><text fill="black" font-size="16" font-weight="normal" transform="translate(10, 10)" alignment-baseline="middle" font-family="Bookman"><tspan x="0" dy="16">View</tspan></text></g><path d="M 29.5546875,73 L 268.1376953125 73" fill="none" stroke="black" stroke-dasharray="none" stroke-width="1" marker-end="url(#arrow)"/><path d="M 268.1376953125,103.5 L 442.162109375 103.5" fill="none" stroke="black" stroke-dasharray="none" stroke-width="1" marker-end="url(#arrow)"/><path d="M 442.162109375,134 L 268.1376953125 134" fill="none" stroke="black" stroke-dasharray="none" stroke-width="1" marker-end="url(#arrow)"/><path d="M 268.1376953125,164.5 L 523.900390625 164.5" fill="none" stroke="black" stroke-dasharray="none" stroke-width="1" marker-end="url(#arrow)"/><path d="M 523.900390625,195 L 268.1376953125 195" fill="none" stroke="black" stroke-dasharray="none" stroke-width="1" marker-end="url(#arrow)"/><path d="M 268.1376953125,225.5 L 29.5546875 225.5" fill="none" stroke="black" stroke-dasharray="none" stroke-width="1" marker-end="url(#arrow)"/><path d="M 29.5546875,38.5 L 29.5546875 245.5" fill="none" stroke="black" stroke-dasharray="none" stroke-width="1"/><path d="M 268.1376953125,38.5 L 268.1376953125 245.5" fill="none" stroke="black" stroke-dasharray="none" stroke-width="1"/><path d="M 442.162109375,38.5 L 442.162109375 245.5" fill="none" stroke="black" stroke-dasharray="none" stroke-width="1"/><path d="M 523.900390625,38.5 L 523.900390625 245.5" fill="none" stroke="black" stroke-dasharray="none" stroke-width="1"/><g transform="translate(77.4736328125, 50.5)"><rect width="142.7451171875" height="18.5" stroke="none" fill="white" stroke-width="1" transform="translate(0, 0)" rx="5"/><text fill="black" font-size="14" font-weight="normal" transform="translate(1, 1)" alignment-baseline="middle"><tspan x="0" dy="14">request GET /bookmarks</tspan></text></g><g transform="translate(323.439453125, 81)"><rect width="63.4208984375" height="18.5" stroke="none" fill="white" stroke-width="1" transform="translate(0, 0)" rx="5"/><text fill="black" font-size="14" font-weight="normal" transform="translate(1, 1)" alignment-baseline="middle"><tspan x="0" dy="14">request .all</tspan></text></g><g transform="translate(292.1376953125, 111.5)"><rect width="126.0244140625" height="18.5" stroke="none" fill="white" stroke-width="1" transform="translate(0, 0)" rx="5"/><text fill="black" font-size="14" font-weight="normal" transform="translate(1, 1)" alignment-baseline="middle"><tspan x="0" dy="14">response [bookmarks]</tspan></text></g><g transform="translate(341.94482421875, 142)"><rect width="108.1484375" height="18.5" stroke="none" fill="white" stroke-width="1" transform="translate(0, 0)" rx="5"/><text fill="black" font-size="14" font-weight="normal" transform="translate(1, 1)" alignment-baseline="middle"><tspan x="0" dy="14">sends [bookmarks]</tspan></text></g><g transform="translate(355.94140625, 172.5)"><rect width="80.1552734375" height="18.5" stroke="none" fill="white" stroke-width="1" transform="translate(0, 0)" rx="5"/><text fill="black" font-size="14" font-weight="normal" transform="translate(1, 1)" alignment-baseline="middle"><tspan x="0" dy="14">response html</tspan></text></g><g transform="translate(53.5546875, 203)"><rect width="190.5830078125" height="18.5" stroke="none" fill="white" stroke-width="1" transform="translate(0, 0)" rx="5"/><text fill="black" font-size="14" font-weight="normal" transform="translate(1, 1)" alignment-baseline="middle"><tspan x="0" dy="14">response with a list of bookmarks</tspan></text></g></svg>